<svg width="64" height="64" viewBox="0 0 64 64" xmlns="http://www.w3.org/2000/svg">
  <g>
    <animateTransform attributeName="transform" type="translate" values="0 0; 0 -6; 0 0" dur="1.8s" begin="0.4s" repeatCount="indefinite"/>
    <circle cx="32" cy="32" r="30" fill="#2F81F7"/>
    <path d="M22 24 C26 22 30 21 32 21 C34 21 38 22 42 24 C44 28 45 33 44.5 39 C41.5 41.5 38.5 43 35.5 43.5 L34 40.5 C35 40.2 36 39.8 37 39.3 C36.7 39.1 36.4 38.9 36.1 38.7 C31.6 40.7 27.9 40.7 27.9 40.7 C27.6 38.9 27.3 39.1 27 39.3 C28 39.8 29 40.2 30 40.5 L28.5 43.5 C25.5 43 22.5 41.5 19.5 39 C19 33 20 28 22 24 Z" fill="#ffffff"/>
    <circle cx="26" cy="32" r="2.3" fill="#2F81F7"/>
    <circle cx="38" cy="32" r="2.3" fill="#2F81F7"/>
  </g>
</svg>
